<?xml version="1.0" standalone="no"?><!DOCTYPE svg PUBLIC "-//W3C//DTD SVG 1.1//EN" "http://www.w3.org/Graphics/SVG/1.1/DTD/svg11.dtd"><svg t="1653622833587" class="icon" viewBox="0 0 1024 1024" version="1.1" xmlns="http://www.w3.org/2000/svg" p-id="15653" xmlns:xlink="http://www.w3.org/1999/xlink" width="200" height="200"><defs><style type="text/css">@font-face { font-family: feedback-iconfont; src: url("//at.alicdn.com/t/font_1031158_u69w8yhxdu.woff2?t=1630033759944") format("woff2"), url("//at.alicdn.com/t/font_1031158_u69w8yhxdu.woff?t=1630033759944") format("woff"), url("//at.alicdn.com/t/font_1031158_u69w8yhxdu.ttf?t=1630033759944") format("truetype"); }
</style></defs><path d="M601.2928 227.84l-124.16-71.68c-51.456-29.696-115.9168-14.2848-144.0256 34.4064l-243.712 422.144a99.4304 99.4304 0 0 0-7.4752 82.0224l42.0864 123.5456a74.6496 74.6496 0 0 0 85.504 48.384l124.4672-27.0336a99.328 99.328 0 0 0 65.4336-47.104l244.0704-422.7584c28.1088-48.64 9.216-112.2304-42.1888-141.9264z" fill="#FAAD14" opacity=".85" p-id="15654"></path><path d="M293.0688 600.4736c16.2816 9.4208 21.8624 30.208 12.4416 46.5408l-16.9984 29.4912a34.048 34.048 0 1 1-58.9824-34.048l16.9984-29.4912a34.048 34.048 0 0 1 46.5408-12.4928z m85.1456-147.456c16.2816 9.4208 21.8624 30.208 12.4416 46.5408l-16.9984 29.4912a34.048 34.048 0 0 1-58.9824-34.0992l16.9984-29.4912a34.048 34.048 0 0 1 46.5408-12.4416z" fill="#FFFFFF" fill-opacity=".85" p-id="15655"></path><path d="M512 768h51.2a51.2 51.2 0 0 1 0 102.4h-51.2a51.2 51.2 0 0 1 0-102.4zM768 768h153.6a51.2 51.2 0 0 1 0 102.4h-153.6a51.2 51.2 0 0 1 0-102.4z" fill="#FAAD14" opacity=".85" p-id="15656"></path></svg>